HIERARCHY
ROOT hip
{
  OFFSET 0 0 0
  CHANNELS 6 Xposition Yposition Zposition Zrotation Yrotation Xrotation
  JOINT abdomen
  {
    OFFSET 0 20.6881 -0.73152
    CHANNELS 3 Zrotation Xrotation Yrotation
    JOINT chest
    {
      OFFSET 0 11.7043 -0.48768
      CHANNELS 3 Zrotation Xrotation Yrotation
      JOINT neck
      {
        OFFSET 0 22.1894 -2.19456
        CHANNELS 3 Zrotation Xrotation Yrotation
        JOINT head
        {
          OFFSET -0.24384 7.07133 1.2192
          CHANNELS 3 Zrotation Xrotation Yrotation
          JOINT leftEye
          {
            OFFSET 4.14528 8.04674 8.04672
            CHANNELS 3 Zrotation Xrotation Yrotation
            End Site
            {
              OFFSET 1 0 0
            }
          }
          JOINT rightEye
          {
            OFFSET -3.6576 8.04674 8.04672
            CHANNELS 3 Zrotation Xrotation Yrotation
            End Site
            {
              OFFSET 1 0 0
            }
          }
        }
      }
      JOINT rCollar
      {
        OFFSET -2.68224 19.2634 -4.8768
        CHANNELS 3 Zrotation Xrotation Yrotation
        JOINT rShldr
        {
          OFFSET -8.77824 -1.95073 1.46304
          CHANNELS 3 Zrotation Xrotation Yrotation
          JOINT rForeArm
          {
            OFFSET -28.1742 -1.7115 0.48768
            CHANNELS 3 Zrotation Xrotation Yrotation
            JOINT rHand
            {
              OFFSET -22.5879 0.773209 7.07136
              CHANNELS 3 Zrotation Xrotation Yrotation
              JOINT rThumb1
              {
                OFFSET -1.2192 -0.487915 3.41376
                CHANNELS 3 Zrotation Xrotation Yrotation
                JOINT rThumb2
                {
                  OFFSET -3.37035 -0.52449 3.41376
                  CHANNELS 3 Zrotation Xrotation Yrotation
                  End Site
                  {
                    OFFSET -1.78271 -1.18214 1.43049
                  }
                }
              }
              JOINT rIndex1
              {
                OFFSET -7.75947 0.938293 5.60832
                CHANNELS 3 Zrotation Xrotation Yrotation
                JOINT rIndex2
                {
                  OFFSET -2.54057 -0.884171 1.56538
                  CHANNELS 3 Zrotation Xrotation Yrotation
                  End Site
                  {
                    OFFSET -1.62519 -0.234802 1.16502
                  }
                }
              }
              JOINT rMid1
              {
                OFFSET -8.24714 1.18213 3.41376
                CHANNELS 3 Zrotation Xrotation Yrotation
                JOINT rMid2
                {
                  OFFSET -3.10165 -0.590103 1.0647
                  CHANNELS 3 Zrotation Xrotation Yrotation
                  End Site
                  {
                    OFFSET -2.48547 -0.328903 0.83742
                  }
                }
              }
              JOINT rRing1
              {
                OFFSET -8.82822 0.546677 1.51678
                CHANNELS 3 Zrotation Xrotation Yrotation
                JOINT rRing2
                {
                  OFFSET -2.60934 -0.819778 -0.0198488
                  CHANNELS 3 Zrotation Xrotation Yrotation
                  End Site
                  {
                    OFFSET -2.33842 -0.294052 0.168128
                  }
                }
              }
              JOINT rPinky1
              {
                OFFSET -8.27202 -0.0477905 -0.4584
                CHANNELS 3 Zrotation Xrotation Yrotation
                JOINT rPinky2
                {
                  OFFSET -1.82734 -0.647385 -0.700984
                  CHANNELS 3 Zrotation Xrotation Yrotation
                  End Site
                  {
                    OFFSET -1.69225 -0.51767 -0.607171
                  }
                }
              }
            }
          }
        }
      }
      JOINT lCollar
      {
        OFFSET 2.68224 19.2634 -4.8768
        CHANNELS 3 Zrotation Xrotation Yrotation
        JOINT lShldr
        {
          OFFSET 8.77824 -1.95073 1.46304
          CHANNELS 3 Zrotation Xrotation Yrotation
          JOINT lForeArm
          {
            OFFSET 28.1742 -1.7115 0.48768
            CHANNELS 3 Zrotation Xrotation Yrotation
            JOINT lHand
            {
              OFFSET 22.5879 0.773209 7.07136
              CHANNELS 3 Zrotation Xrotation Yrotation
              JOINT lThumb1
              {
                OFFSET 1.2192 -0.487915 3.41376
                CHANNELS 3 Zrotation Xrotation Yrotation
                JOINT lThumb2
                {
                  OFFSET 3.37035 -0.52449 3.41376
                  CHANNELS 3 Zrotation Xrotation Yrotation
                  End Site
                  {
                    OFFSET 1.78271 -1.18214 1.43049
                  }
                }
              }
              JOINT lIndex1
              {
                OFFSET 7.75947 0.938293 5.60832
                CHANNELS 3 Zrotation Xrotation Yrotation
                JOINT lIndex2
                {
                  OFFSET 2.54057 -0.884171 1.56538
                  CHANNELS 3 Zrotation Xrotation Yrotation
                  End Site
                  {
                    OFFSET 1.62519 -0.234802 1.16502
                  }
                }
              }
              JOINT lMid1
              {
                OFFSET 8.24714 1.18213 3.41376
                CHANNELS 3 Zrotation Xrotation Yrotation
                JOINT lMid2
                {
                  OFFSET 3.10165 -0.590103 1.0647
                  CHANNELS 3 Zrotation Xrotation Yrotation
                  End Site
                  {
                    OFFSET 2.48547 -0.328903 0.83742
                  }
                }
              }
              JOINT lRing1
              {
                OFFSET 8.82822 0.546677 1.51678
                CHANNELS 3 Zrotation Xrotation Yrotation
                JOINT lRing2
                {
                  OFFSET 2.60934 -0.819778 -0.0198488
                  CHANNELS 3 Zrotation Xrotation Yrotation
                  End Site
                  {
                    OFFSET 2.33842 -0.294052 0.168128
                  }
                }
              }
              JOINT lPinky1
              {
                OFFSET 8.27202 -0.0477905 -0.4584
                CHANNELS 3 Zrotation Xrotation Yrotation
                JOINT lPinky2
                {
                  OFFSET 1.82734 -0.647385 -0.700984
                  CHANNELS 3 Zrotation Xrotation Yrotation
                  End Site
                  {
                    OFFSET 1.69225 -0.51767 -0.607171
                  }
                }
              }
            }
          }
        }
      }
    }
  }
  JOINT rButtock
  {
    OFFSET -8.77824 4.35084 1.2192
    CHANNELS 3 Zrotation Xrotation Yrotation
    JOINT rThigh
    {
      OFFSET 0 -1.70687 -2.19456
      CHANNELS 3 Zrotation Xrotation Yrotation
      JOINT rShin
      {
        OFFSET 0 -36.8199 0.73152
        CHANNELS 3 Zrotation Xrotation Yrotation
        JOINT rFoot
        {
          OFFSET 0.73152 -45.1104 -5.12064
          CHANNELS 3 Zrotation Xrotation Yrotation
          End Site
          {
            OFFSET -1.1221 -3.69964 12.103
          }
        }
      }
    }
  }
  JOINT lButtock
  {
    OFFSET 8.77824 4.35084 1.2192
    CHANNELS 3 Zrotation Xrotation Yrotation
    JOINT lThigh
    {
      OFFSET 0 -1.70687 -2.19456
      CHANNELS 3 Zrotation Xrotation Yrotation
      JOINT lShin
      {
        OFFSET 0 -36.8199 0.73152
        CHANNELS 3 Zrotation Xrotation Yrotation
        JOINT lFoot
        {
          OFFSET -0.73152 -45.1104 -5.12064
          CHANNELS 3 Zrotation Xrotation Yrotation
          End Site
          {
            OFFSET 1.1221 -3.69964 12.103
          }
        }
      }
    }
  }
}
MOTION
Frames:	6
Frame Time:	0.00833333
63.3578 84.1181 3.58871 0.0 0.0 0.0 -0.769347 -0.0038603 -0.0215834 -0.212073 -0.00504113 -0.036744 9.52688e-16 7.95139e-16 9.93923e-17 2.842e-15 9.54166e-15 3.80486e-16 -0.0 0.0 0.0 -0.0 0.0 0.0 5.45367e-16 3.10601e-18 1.98785e-16 1.18976e-14 2.48481e-16 2.38542e-15 1.77515e-13 -5.28767e-14 2.8625e-14 2.04219e-12 5.86166e-14 2.67167e-13 4.81312e-12 7.33796e-15 6.42472e-13 8.30602e-12 9.54166e-15 1.10127e-12 4.81814e-12 8.34896e-15 6.23389e-13 7.73091 5.47488 0.417314 4.81352e-12 7.05686e-15 6.39292e-13 2.90554 0.965183 0.102902 4.81941e-12 7.45443e-15 6.35316e-13 10.2786 0.731801 0.0259123 4.80781e-12 1.03368e-14 6.39292e-13 2.22167 -0.733487 -0.20892 4.48589e-16 3.10601e-18 -4.96962e-17 7.98516e-15 1.49089e-16 3.97569e-16 1.77117e-13 5.22804e-14 3.81667e-14 2.03656e-12 -6.30147e-14 2.54444e-13 4.80749e-12 -2.72662e-14 6.23389e-13 8.3096e-12 -4.45278e-14 1.08854e-12 4.80224e-12 -2.8625e-14 6.2975e-13 -7.73091 5.47488 -0.417314 4.8085e-12 -2.78299e-14 6.26569e-13 -2.90554 0.965183 -0.102902 4.80328e-12 -2.73329e-14 6.32135e-13 -10.2786 0.731801 -0.0259123 4.81397e-12 -2.34566e-14 6.26569e-13 -2.22167 -0.733487 0.20892 -2.03217e-16 0.0 -3.88251e-19 -0.0538946 -2.09674 -0.0177084 -0.0090403 -1.75492 -0.076044 -0.528951 3.85119 0.13978 2.03217e-16 0.0 3.88251e-19 -1.11485 -4.98914 0.0938575 0.00115132 3.48419 -0.00507214 0.536991 1.50463 -0.0922778
55.6362 82.8552 -3.072 96.3056 -88.2036 -99.6689 -1.77539 -0.890951 -0.339334 -0.116444 2.10101 -0.135692 -0.408172 4.21786 0.274763 1.40305 -1.76779 0.332868 -0.0 0.0 0.0 -0.0 0.0 0.0 -6.83916e-16 -5.45007e-14 -2.41958e-15 20.8039 12.209 2.73675 -7.10861 -4.12981 9.95289 0.03618 4.22135 0.587471 9.20869e-11 -4.56263e-10 -2.4364e-10 1.5593e-10 -7.8923e-10 -4.21192e-10 9.20905e-11 -4.56265e-10 -2.43657e-10 7.73091 5.47488 0.417314 9.20871e-11 -4.56265e-10 -2.43642e-10 2.90554 0.965183 0.102902 9.20892e-11 -4.56265e-10 -2.43645e-10 10.2786 0.731801 0.0259123 9.20817e-11 -4.56262e-10 -2.4364e-10 2.22167 -0.733487 -0.20892 -7.55767e-16 -5.45008e-14 -2.68398e-15 -22.652 5.27758 -0.750485 8.73906 -5.6193 -11.3929 -0.149662 8.59974 -1.16003 -6.44097e-10 7.90296e-11 -2.24719e-10 -1.11581e-09 1.39805e-10 -3.7394e-10 -6.44101e-10 7.90288e-11 -2.24712e-10 -7.73091 5.47488 -0.417314 -6.44096e-10 7.90296e-11 -2.24718e-10 -2.90554 0.965183 -0.102902 -6.44101e-10 7.90303e-11 -2.24716e-10 -10.2786 0.731801 -0.0259123 -6.44091e-10 7.90347e-11 -2.24724e-10 -2.22167 -0.733487 0.20892 -2.03217e-16 0.0 -3.88251e-19 -3.44421 -4.85877 0.597705 0.0388516 9.27621 0.123284 -1.04642 -5.35791 -2.73117 2.03217e-16 0.0 3.88251e-19 1.65301 -7.83402 0.370477 -0.00780252 13.7168 -0.167577 1.58878 -5.45328 6.15393
55.6363 82.8589 -3.08545 98.0526 -88.2295 -101.408 -2.84879 -1.82733 -0.676766 -0.00956252 4.32612 -0.241017 -0.883189 8.67839 0.570077 2.90939 -3.63856 0.685667 -0.0 0.0 0.0 -0.0 0.0 0.0 -3.63671e-15 -8.63279e-14 -5.91384e-15 41.4115 25.0185 6.07259 -13.0828 -8.07853 20.6339 -0.0206836 8.68167 1.2191 1.90611e-10 -9.75326e-10 -5.17889e-10 3.22578e-10 -1.68706e-09 -8.95259e-10 1.90613e-10 -9.7533e-10 -5.17904e-10 7.73091 5.47488 0.417314 1.90611e-10 -9.75329e-10 -5.1789e-10 2.90554 0.965183 0.102902 1.90609e-10 -9.7533e-10 -5.17893e-10 10.2786 0.731801 0.0259123 1.90606e-10 -9.75326e-10 -5.17887e-10 2.22167 -0.733487 -0.20892 -3.68129e-15 -8.63279e-14 -6.19649e-15 -46.4457 10.8609 -1.56592 15.5761 -10.8121 -23.7672 0.0878139 17.6845 -2.47731 -1.38366e-09 1.70453e-10 -4.752e-10 -2.39681e-09 3.01445e-10 -7.90444e-10 -1.38366e-09 1.70453e-10 -4.75193e-10 -7.73091 5.47488 -0.417314 -1.38365e-09 1.70454e-10 -4.75202e-10 -2.90554 0.965183 -0.102902 -1.38366e-09 1.70455e-10 -4.75203e-10 -10.2786 0.731801 -0.0259123 -1.38365e-09 1.7046e-10 -4.75214e-10 -2.22167 -0.733487 0.20892 -2.03217e-16 0.0 -3.88251e-19 -6.96769 -7.77493 1.24899 0.00135494 20.9369 0.353946 -2.6243 -15.0257 -5.94372 2.03217e-16 0.0 3.88251e-19 4.60642 -10.84 0.66557 0.0517128 24.5339 -0.362314 4.37155 -12.5546 13.014
55.6399 82.8576 -3.10969 99.8784 -88.2654 -103.213 -3.81703 -2.66479 -0.975766 0.0967583 6.31303 -0.335348 -1.34844 12.6524 0.842517 4.271 -5.30266 1.00242 -0.0 0.0 0.0 -0.0 0.0 0.0 -3.14248e-15 -1.63508e-13 -7.65632e-15 58.216 36.2511 9.96823 -17.1742 -10.895 30.384 -0.156619 12.6587 1.80143 2.66635e-10 -1.3688e-09 -7.32204e-10 4.51178e-10 -2.36771e-09 -1.26578e-09 2.66635e-10 -1.36881e-09 -7.32219e-10 7.73091 5.47488 0.417314 2.66634e-10 -1.36881e-09 -7.32205e-10 2.90554 0.965183 0.102902 2.66629e-10 -1.36881e-09 -7.32207e-10 10.2786 0.731801 0.0259123 2.6663e-10 -1.36881e-09 -7.322e-10 2.22167 -0.733487 -0.20892 -3.16448e-15 -1.63508e-13 -7.95255e-15 -67.5276 15.8217 -2.33024 19.788 -14.1843 -35.237 0.692851 25.7545 -3.821 -1.94191e-09 2.37143e-10 -6.75404e-10 -3.36404e-09 4.19505e-10 -1.124e-09 -1.94191e-09 2.37144e-10 -6.75397e-10 -7.73091 5.47488 -0.417314 -1.9419e-09 2.37145e-10 -6.75409e-10 -2.90554 0.965183 -0.102902 -1.94191e-09 2.37146e-10 -6.75412e-10 -10.2786 0.731801 -0.0259123 -1.9419e-09 2.37151e-10 -6.75426e-10 -2.22167 -0.733487 0.20892 -2.03217e-16 0.0 -3.88251e-19 -10.0442 -10.3783 1.85238 -0.125234 31.3371 0.605342 -5.03589 -23.5212 -9.20749 2.03217e-16 0.0 3.88251e-19 7.27341 -13.5225 0.940118 0.180502 34.1807 -0.578132 8.35476 -18.4133 19.6038
55.6522 82.8465 -3.15008 101.706 -88.3457 -104.985 -4.5014 -3.25527 -1.1778 0.186087 7.70451 -0.400554 -1.70091 15.4112 1.04041 5.22693 -6.45079 1.2254 -0.0 0.0 0.0 -0.0 0.0 0.0 5.96933e-15 -3.54073e-13 -5.01931e-15 68.6495 43.887 13.6481 -19.4265 -12.3071 37.3052 -0.301305 15.4325 2.22347 2.86408e-10 -1.44832e-09 -7.96688e-10 4.84661e-10 -2.50541e-09 -1.37744e-09 2.86409e-10 -1.44833e-09 -7.967e-10 7.73091 5.47488 0.417314 2.86408e-10 -1.44833e-09 -7.96688e-10 2.90554 0.965183 0.102902 2.86401e-10 -1.44833e-09 -7.96689e-10 10.2786 0.731801 0.0259123 2.86403e-10 -1.44833e-09 -7.96681e-10 2.22167 -0.733487 -0.20892 5.95814e-15 -3.54073e-13 -5.31749e-15 -82.1389 19.2363 -2.8912 21.8683 -15.5609 -43.4351 1.37705 31.3301 -4.90773 -2.04689e-09 2.41999e-10 -7.49914e-10 -3.54684e-09 4.28615e-10 -1.25017e-09 -2.04689e-09 2.42e-10 -7.49908e-10 -7.73091 5.47488 -0.417314 -2.04689e-09 2.42e-10 -7.49921e-10 -2.90554 0.965183 -0.102902 -2.04689e-09 2.42002e-10 -7.49926e-10 -10.2786 0.731801 -0.0259123 -2.04688e-09 2.42007e-10 -7.4994e-10 -2.22167 -0.733487 0.20892 -2.03217e-16 0.0 -3.88251e-19 -12.1283 -12.2036 2.31549 -0.283606 38.5874 0.828218 -7.3895 -29.3337 -11.863 2.03217e-16 0.0 3.88251e-19 9.16522 -15.3974 1.14991 0.328052 40.9032 -0.769488 11.9987 -22.0895 24.569
55.6586 82.8415 -3.18829 103.77 -88.3933 -107.018 -4.7732 -3.49874 -1.24716 0.244452 8.26281 -0.424995 -1.8612 16.4608 1.12223 5.60089 -6.86554 1.31572 -0.0 0.0 0.0 -0.0 0.0 0.0 3.28125e-14 -8.02278e-13 5.92821e-15 72.3162 46.8195 15.446 -20.1971 -12.7182 40.0436 -0.370203 16.5311 2.3951 2.11384e-10 -1.0272e-09 -6.23874e-10 3.57643e-10 -1.77728e-09 -1.079e-09 2.11385e-10 -1.02721e-09 -6.23885e-10 7.73091 5.47488 0.417314 2.11383e-10 -1.02721e-09 -6.23872e-10 2.90554 0.965183 0.102902 2.11377e-10 -1.02721e-09 -6.23874e-10 10.2786 0.731801 0.0259123 2.11378e-10 -1.02721e-09 -6.23866e-10 2.22167 -0.733487 -0.20892 3.27933e-14 -8.02278e-13 5.64673e-15 -87.8415 20.4847 -3.11352 22.5461 -15.8605 -46.6962 1.70473 33.4241 -5.36319 -1.42611e-09 1.47074e-10 -6.28446e-10 -2.47371e-09 2.61932e-10 -1.05344e-09 -1.42611e-09 1.47076e-10 -6.28441e-10 -7.73091 5.47488 -0.417314 -1.42611e-09 1.47076e-10 -6.28452e-10 -2.90554 0.965183 -0.102902 -1.42612e-09 1.47077e-10 -6.28456e-10 -10.2786 0.731801 -0.0259123 -1.42611e-09 1.47081e-10 -6.28468e-10 -2.22167 -0.733487 0.20892 -2.03217e-16 0.0 -3.88251e-19 -12.8743 -12.9408 2.56967 -0.366383 41.4273 0.932534 -8.50432 -31.5954 -13.0391 2.03217e-16 0.0 3.88251e-19 9.94998 -16.1449 1.26145 0.402771 43.5342 -0.85707 13.6225 -23.3932 26.6261
